<svg width="16" height="16" viewBox="0 0 16 16" fill="none" xmlns="http://www.w3.org/2000/svg">
<path d="M7.77372 2.492C7.79373 2.44863 7.82575 2.41191 7.86597 2.38616C7.9062 2.36042 7.95296 2.34674 8.00072 2.34674C8.04848 2.34674 8.09524 2.36042 8.13547 2.38616C8.1757 2.41191 8.20771 2.44863 8.22772 2.492L9.77622 5.849C9.79413 5.8878 9.82169 5.92137 9.85627 5.94649C9.89084 5.97162 9.93128 5.98746 9.97372 5.9925L13.6442 6.4275C13.6917 6.43314 13.7365 6.45226 13.7734 6.4826C13.8103 6.51294 13.8378 6.55322 13.8525 6.59868C13.8673 6.64413 13.8687 6.69286 13.8565 6.73908C13.8444 6.78531 13.8193 6.8271 13.7842 6.8595L11.0707 9.3695C11.0395 9.39855 11.0161 9.43512 11.003 9.47573C10.9899 9.51635 10.9874 9.55964 10.9957 9.6015L11.7157 13.227C11.7251 13.2739 11.7208 13.3225 11.7034 13.367C11.686 13.4115 11.6562 13.4501 11.6175 13.4782C11.5788 13.5063 11.5329 13.5228 11.4852 13.5256C11.4374 13.5283 11.3899 13.5174 11.3482 13.494L8.12322 11.6885C8.08582 11.6675 8.04363 11.6564 8.00072 11.6564C7.95781 11.6564 7.91563 11.6675 7.87822 11.6885L4.65322 13.4935C4.61157 13.5168 4.5641 13.5278 4.51643 13.525C4.46876 13.5222 4.42288 13.5058 4.38422 13.4778C4.34557 13.4498 4.31575 13.4113 4.29829 13.3668C4.28084 13.3224 4.27647 13.2738 4.28572 13.227L5.00572 9.6015C5.01415 9.55956 5.01169 9.51617 4.99856 9.47546C4.98542 9.43476 4.96207 9.3981 4.93072 9.369L2.21672 6.859C2.18176 6.82657 2.15679 6.78482 2.14478 6.73867C2.13277 6.69252 2.1342 6.6439 2.14892 6.59854C2.16364 6.55318 2.19102 6.51297 2.22784 6.48267C2.26466 6.45236 2.30938 6.43322 2.35672 6.4275L6.02772 5.9925C6.07025 5.98754 6.11079 5.97174 6.14546 5.94661C6.18013 5.92148 6.20777 5.88787 6.22572 5.849L7.77372 2.492Z" fill="#FFCF47" stroke="#FFCF47" stroke-linecap="round" stroke-linejoin="round"/>
</svg>
