<svg width="33" height="36" viewBox="0 0 33 36" fill="none" xmlns="http://www.w3.org/2000/svg">
<path d="M21.4655 9.39111H22.3996V26.6085H21.5665L10.5337 11.0145V26.6085H9.59961V9.39111H10.458L21.4655 24.9852V9.39111Z" fill="#F0761F"/>
<path fill-rule="evenodd" clip-rule="evenodd" d="M30.8847 9.227L16.4445 1.127C16.1969 0.988123 15.8923 0.988123 15.6447 1.127L1.20457 9.227C0.955671 9.36662 0.802231 9.62536 0.802231 9.90545V26.0944C0.802231 26.3745 0.955671 26.6332 1.20457 26.7729L15.6447 34.8729C15.8923 35.0117 16.1969 35.0117 16.4445 34.8729L30.8847 26.7729C31.1336 26.6332 31.287 26.3745 31.287 26.0944V9.90545C31.287 9.62536 31.1336 9.36662 30.8847 9.227ZM16.8444 0.448555C16.3492 0.170794 15.74 0.170794 15.2448 0.448555L0.804684 8.54856C0.30688 8.82779 0 9.34527 0 9.90545V26.0944C0 26.6546 0.30688 27.1721 0.804684 27.4513L15.2448 35.5513C15.74 35.8291 16.3492 35.8291 16.8444 35.5513L31.2846 27.4513C31.7824 27.1721 32.0892 26.6546 32.0892 26.0944V9.90545C32.0892 9.34527 31.7824 8.82779 31.2846 8.54856L16.8444 0.448555Z" fill="#F0761F"/>
</svg>
