<svg width="123" height="36" viewBox="0 0 123 36" fill="none" xmlns="http://www.w3.org/2000/svg">
<path d="M121.397 24.5739L120.123 21.2305H113.547L112.273 24.5739H111.224L116.32 11.426H117.369L122.446 24.5739H121.397ZM113.922 20.2914H119.767L116.844 12.6469L113.922 20.2914Z" fill="#2A2B2D"/>
<path d="M104.58 11.426H105.573V24.5739H104.58V11.426Z" fill="#2A2B2D"/>
<path d="M96.5891 11.426H97.5821V24.5739H96.7015L88.9637 13.2667V24.5739H87.9707V11.426H88.8325L96.5891 22.7332V11.426Z" fill="#2A2B2D"/>
<path d="M81.0146 24.5739L77.867 19.1832H73.7264V24.5739H72.7334V11.426H77.9044C78.9661 11.426 79.8779 11.8079 80.6398 12.5718C81.4018 13.3356 81.7827 14.2497 81.7827 15.314C81.7827 16.2031 81.5079 16.9919 80.9583 17.6806C80.4213 18.3693 79.7343 18.8264 78.8974 19.0518L82.1574 24.5739H81.0146ZM73.7264 12.3652V18.2441H77.9044C78.7038 18.2441 79.3845 17.9624 79.9466 17.3989C80.5087 16.8229 80.7897 16.1279 80.7897 15.314C80.7897 14.5001 80.5087 13.8052 79.9466 13.2292C79.3845 12.6532 78.7038 12.3652 77.9044 12.3652H73.7264Z" fill="#2A2B2D"/>
<path d="M66.028 24.5739L64.7539 21.2305H58.1777L56.9037 24.5739H55.8545L60.9506 11.426H61.9998L67.0771 24.5739H66.028ZM58.5524 20.2914H64.398L61.4752 12.6469L58.5524 20.2914Z" fill="#2A2B2D"/>
<path d="M49.2121 11.426H50.2051V24.5739H49.3246L41.5867 13.2667V24.5739H40.5938V11.426H41.4556L49.2121 22.7332V11.426Z" fill="#2A2B2D"/>
<path d="M20.8885 9.39124H21.7975V26.6086H20.9868L10.2508 11.0146V26.6086H9.3418V9.39124H10.1771L20.8885 24.9853V9.39124Z" fill="#F0761F"/>
<path fill-rule="evenodd" clip-rule="evenodd" d="M30.0539 9.227L16.0022 1.127C15.7612 0.988123 15.4648 0.988123 15.2239 1.127L1.17217 9.227C0.929965 9.36662 0.780652 9.62536 0.780652 9.90545V26.0944C0.780652 26.3745 0.929965 26.6332 1.17217 26.7729L15.2239 34.8729C15.4648 35.0117 15.7612 35.0117 16.0022 34.8729L30.0539 26.7729C30.2961 26.6332 30.4454 26.3745 30.4454 26.0944V9.90545C30.4454 9.62536 30.2961 9.36662 30.0539 9.227ZM16.3913 0.448555C15.9094 0.170794 15.3166 0.170794 14.8348 0.448555L0.783039 8.54856C0.298625 8.82779 0 9.34527 0 9.90545V26.0944C0 26.6546 0.298625 27.1721 0.783039 27.4513L14.8348 35.5513C15.3166 35.8291 15.9094 35.8291 16.3913 35.5513L30.443 27.4513C30.9275 27.1721 31.2261 26.6546 31.2261 26.0944V9.90545C31.2261 9.34527 30.9275 8.82779 30.443 8.54856L16.3913 0.448555Z" fill="#F0761F"/>
</svg>
