<svg width="0" height="0" class="hidden">
  <symbol fill="none" xmlns="http://www.w3.org/2000/svg" viewBox="0 0 24 24" id="chevron-down">
    <path d="M18 9L12 15L6 9" stroke="#2D201D" stroke-linecap="round" stroke-linejoin="round"></path>
  </symbol>
  <symbol fill="none" xmlns="http://www.w3.org/2000/svg" viewBox="0 0 24 24" id="chevron-left">
    <path d="M15 18L9 12L15 6" stroke="#2D201D" stroke-linecap="round" stroke-linejoin="round"></path>
  </symbol>
  <symbol fill="none" xmlns="http://www.w3.org/2000/svg" viewBox="0 0 24 24" id="chevron-right">
    <path d="M9 18L15 12L9 6" stroke="#2D201D" stroke-linecap="round" stroke-linejoin="round"></path>
  </symbol>
  <symbol fill="none" xmlns="http://www.w3.org/2000/svg" viewBox="0 0 24 24" id="chevron-up">
    <path d="M18 15L12 9L6 15" stroke="#2D201D" stroke-linecap="round" stroke-linejoin="round"></path>
  </symbol>
  <symbol fill="none" xmlns="http://www.w3.org/2000/svg" viewBox="0 0 24 24" id="close">
    <path d="M6.34315 6.34313L17.6569 17.6568M17.6569 6.34313L6.34315 17.6568" stroke="#2D201D" stroke-linecap="round" stroke-linejoin="round"></path>
  </symbol>
  <symbol fill="none" xmlns="http://www.w3.org/2000/svg" viewBox="0 0 24 24" id="copy">
    <path d="M7 9.667C7 8.95967 7.28099 8.28131 7.78115 7.78115C8.28131 7.28099 8.95967 7 9.667 7H18.333C18.6832 7 19.03 7.06898 19.3536 7.20301C19.6772 7.33704 19.9712 7.53349 20.2189 7.78115C20.4665 8.0288 20.663 8.32281 20.797 8.64638C20.931 8.96996 21 9.31676 21 9.667V18.333C21 18.6832 20.931 19.03 20.797 19.3536C20.663 19.6772 20.4665 19.9712 20.2189 20.2189C19.9712 20.4665 19.6772 20.663 19.3536 20.797C19.03 20.931 18.6832 21 18.333 21H9.667C9.31676 21 8.96996 20.931 8.64638 20.797C8.32281 20.663 8.0288 20.4665 7.78115 20.2189C7.53349 19.9712 7.33704 19.6772 7.20301 19.3536C7.06898 19.03 7 18.6832 7 18.333V9.667Z" stroke="#2D201D" stroke-linecap="round" stroke-linejoin="round"></path>
    <path d="M4.012 16.737C3.705 16.5626 3.44965 16.31 3.2719 16.0049C3.09415 15.6998 3.00034 15.3531 3 15V5C3 3.9 3.9 3 5 3H15C15.75 3 16.158 3.385 16.5 4" stroke="#2D201D" stroke-linecap="round" stroke-linejoin="round"></path>
  </symbol>
  <symbol fill="none" xmlns="http://www.w3.org/2000/svg" viewBox="0 0 24 24" id="filter">
    <path d="M4.5 4H19.5L14 10.5V20L10 16V10.5L4.5 4Z" stroke="#2D201D" stroke-linecap="round" stroke-linejoin="round"></path>
  </symbol>
  <symbol fill="none" xmlns="http://www.w3.org/2000/svg" viewBox="0 0 24 24" id="heart_line">
    <path d="M7.75 3.5C5.127 3.5 3 5.76 3 8.547C3 14.125 12 20.5 12 20.5C12 20.5 21 14.125 21 8.547C21 5.094 18.873 3.5 16.25 3.5C14.39 3.5 12.78 4.636 12 6.29C11.22 4.636 9.61 3.5 7.75 3.5Z" stroke="#2D201D" stroke-linecap="round" stroke-linejoin="round"></path>
  </symbol>
  <symbol fill="none" xmlns="http://www.w3.org/2000/svg" viewBox="0 0 24 24" id="heart-0">
    <path d="M12 21L11.1578 20.2296C9.34445 18.553 7.84445 17.1178 6.65778 15.9241C5.47185 14.7297 4.53556 13.6762 3.84889 12.7637C3.16223 11.8512 2.68223 11.0264 2.40889 10.2893C2.13556 9.55224 1.99926 8.80955 2 8.06123C2 6.63059 2.48 5.42939 3.44 4.45764C4.4 3.48588 5.58667 3 7 3C7.97778 3 8.89445 3.25306 9.75 3.75918C10.6056 4.26531 11.3556 5.00162 12 5.96813C12.6444 5.00162 13.3944 4.26531 14.25 3.75918C15.1056 3.25306 16.0222 3 17 3C18.4133 3 19.6 3.48588 20.56 4.45764C21.52 5.42939 22 6.63059 22 8.06123C22 8.80805 21.8637 9.55036 21.5911 10.2882C21.3178 11.0275 20.8378 11.853 20.1511 12.7648C19.4644 13.6766 18.5315 14.7297 17.3522 15.9241C16.173 17.1178 14.6693 18.553 12.8411 20.2296L12 21Z" fill="#2D201D"></path>
  </symbol>
  <symbol fill="none" xmlns="http://www.w3.org/2000/svg" viewBox="0 0 24 24" id="heart-filled">
    <path d="M7.75 3.5C5.127 3.5 3 5.76 3 8.547C3 14.125 12 20.5 12 20.5C12 20.5 21 14.125 21 8.547C21 5.094 18.873 3.5 16.25 3.5C14.39 3.5 12.78 4.636 12 6.29C11.22 4.636 9.61 3.5 7.75 3.5Z" fill="#2D201D" stroke="#2D201D" stroke-linecap="round" stroke-linejoin="round"></path>
  </symbol>
  <symbol fill="none" xmlns="http://www.w3.org/2000/svg" viewBox="0 0 24 24" id="log-in">
    <path d="M15 3H7C6.46957 3 5.96086 3.21071 5.58579 3.58579C5.21071 3.96086 5 4.46957 5 5V19C5 19.5304 5.21071 20.0391 5.58579 20.4142C5.96086 20.7893 6.46957 21 7 21H15" stroke="#2D201D" stroke-linecap="round" stroke-linejoin="round"></path>
    <path d="M9 12L13 8M9 12L13 16M9 12H19" stroke="#2D201D" stroke-linecap="round" stroke-linejoin="round"></path>
  </symbol>
  <symbol fill="none" xmlns="http://www.w3.org/2000/svg" viewBox="0 0 24 24" id="log-out">
    <path d="M15 3H7C6.46957 3 5.96086 3.21071 5.58579 3.58579C5.21071 3.96086 5 4.46957 5 5V19C5 19.5304 5.21071 20.0391 5.58579 20.4142C5.96086 20.7893 6.46957 21 7 21H15M19 12L15 8M19 12L15 16M19 12H9" stroke="#2D201D" stroke-linecap="round" stroke-linejoin="round"></path>
  </symbol>
  <symbol fill="none" xmlns="http://www.w3.org/2000/svg" viewBox="0 0 24 24" id="mail">
    <path d="M22 6C22 4.9 21.1 4 20 4H4C2.9 4 2 4.9 2 6M22 6V18C22 19.1 21.1 20 20 20H4C2.9 20 2 19.1 2 18V6M22 6L12 13L2 6" stroke="#2D201D" stroke-linecap="round" stroke-linejoin="round"></path>
  </symbol>
  <symbol fill="none" xmlns="http://www.w3.org/2000/svg" viewBox="0 0 24 24" id="menu">
    <path d="M4 7H20" stroke="#2D201D" stroke-linecap="round" stroke-linejoin="round"></path>
    <path d="M4 12H20" stroke="#2D201D" stroke-linecap="round" stroke-linejoin="round"></path>
    <path d="M4 17H20" stroke="#2D201D" stroke-linecap="round" stroke-linejoin="round"></path>
  </symbol>
  <symbol fill="none" xmlns="http://www.w3.org/2000/svg" viewBox="0 0 24 24" id="minus">
    <path d="M4 12H20" stroke="#2D201D" stroke-linecap="round" stroke-linejoin="round"></path>
  </symbol>
  <symbol fill="none" xmlns="http://www.w3.org/2000/svg" viewBox="0 0 24 24" id="order">
    <path d="M17 4H7C5.89543 4 5 4.89543 5 6V19C5 20.1046 5.89543 21 7 21H17C18.1046 21 19 20.1046 19 19V6C19 4.89543 18.1046 4 17 4Z" stroke="#2D201D"></path>
    <path d="M9 9H15M9 13H15M9 17H13" stroke="#2D201D" stroke-linecap="round"></path>
  </symbol>
  <symbol fill="none" xmlns="http://www.w3.org/2000/svg" viewBox="0 0 24 24" id="person">
    <path d="M12 12C13.6569 12 15 10.6569 15 9C15 7.34315 13.6569 6 12 6C10.3431 6 9 7.34315 9 9C9 10.6569 10.3431 12 12 12Z" stroke="#2D201D"></path>
    <path d="M12 22C17.5228 22 22 17.5228 22 12C22 6.47715 17.5228 2 12 2C6.47715 2 2 6.47715 2 12C2 17.5228 6.47715 22 12 22Z" stroke="#2D201D"></path>
    <path d="M17.97 20C17.81 17.108 16.925 15 12 15C7.07503 15 6.19003 17.108 6.03003 20" stroke="#2D201D" stroke-linecap="round"></path>
  </symbol>
  <symbol fill="none" xmlns="http://www.w3.org/2000/svg" viewBox="0 0 24 24" id="phone">
    <path d="M3.9 21H3V16.0354L7.21875 15.1849L10.1573 18.2314C11.1233 17.6989 11.9839 17.1589 12.7391 16.6114C13.4944 16.0639 14.1724 15.4751 14.7731 14.8451C15.3686 14.2541 15.9412 13.5904 16.491 12.8539C17.0407 12.1189 17.5721 11.3062 18.0851 10.416L15.0532 7.59225L16.0072 3H21V3.9C21 5.9025 20.5298 7.92825 19.5893 9.97725C18.6488 12.0262 17.3276 13.9091 15.6259 15.6259C13.9091 17.3426 12.0323 18.6675 9.99525 19.6005C7.95825 20.5335 5.9265 21 3.9 21Z" fill="#2D201D"></path>
  </symbol>
  <symbol fill="none" xmlns="http://www.w3.org/2000/svg" viewBox="0 0 24 24" id="phone_line">
    <path d="M11 18.675C9.07 19.505 6.758 20 4 20V16L8 15L11 18.675ZM11 18.675C14.841 17.023 17.176 14.045 18.5 11M18.5 11C19.6 8.472 20 5.898 20 4H16L15 8L18.5 11Z" stroke="#2D201D" stroke-linecap="round" stroke-linejoin="round"></path>
  </symbol>
  <symbol fill="none" xmlns="http://www.w3.org/2000/svg" viewBox="0 0 24 24" id="placeholder">
    <circle cx="12" cy="12" r="8.5" stroke="#2D201D"></circle>
  </symbol>
  <symbol fill="none" xmlns="http://www.w3.org/2000/svg" viewBox="0 0 24 24" id="plus">
    <path d="M4 12H20M12 4V20" stroke="#2D201D" stroke-linecap="round" stroke-linejoin="round"></path>
  </symbol>
  <symbol fill="none" xmlns="http://www.w3.org/2000/svg" viewBox="0 0 24 24" id="search">
    <path d="M21 21L16.657 16.657M16.657 16.657C17.3999 15.9141 17.9892 15.0321 18.3912 14.0615C18.7933 13.0909 19.0002 12.0506 19.0002 11C19.0002 9.94936 18.7933 8.90905 18.3913 7.93842C17.9892 6.96779 17.3999 6.08585 16.657 5.34296C15.9141 4.60007 15.0322 4.01078 14.0616 3.60874C13.0909 3.20669 12.0506 2.99976 11 2.99976C9.94942 2.99976 8.90911 3.20669 7.93848 3.60874C6.96785 4.01078 6.08591 4.60007 5.34302 5.34296C3.84269 6.84329 2.99982 8.87818 2.99982 11C2.99982 13.1217 3.84269 15.1566 5.34302 16.657C6.84335 18.1573 8.87824 19.0002 11 19.0002C13.1218 19.0002 15.1567 18.1573 16.657 16.657Z" stroke="#2D201D" stroke-linecap="round" stroke-linejoin="round"></path>
  </symbol>
  <symbol fill="none" xmlns="http://www.w3.org/2000/svg" viewBox="0 0 24 24" id="sort">
    <path d="M12 14L16 18.107L20 14M12 10L8 6M8 6L4 9.997M8 6V18M16 6V18" stroke="#2D201D" stroke-linecap="round" stroke-linejoin="round"></path>
  </symbol>
  <symbol fill="none" xmlns="http://www.w3.org/2000/svg" viewBox="0 0 24 24" id="star-filled">
    <path d="M11.6595 3.73803C11.6895 3.67298 11.7375 3.61789 11.7979 3.57928C11.8582 3.54066 11.9284 3.52014 12 3.52014C12.0717 3.52014 12.1418 3.54066 12.2021 3.57928C12.2625 3.61789 12.3105 3.67298 12.3405 3.73803L14.6633 8.77353C14.6901 8.83174 14.7315 8.88209 14.7833 8.91977C14.8352 8.95746 14.8959 8.98121 14.9595 8.98878L20.4653 9.64128C20.5364 9.64974 20.6037 9.67842 20.6591 9.72393C20.7145 9.76944 20.7556 9.82986 20.7777 9.89805C20.7998 9.96623 20.8019 10.0393 20.7838 10.1087C20.7656 10.178 20.7279 10.2407 20.6753 10.2893L16.605 14.0543C16.5581 14.0979 16.5232 14.1527 16.5035 14.2136C16.4838 14.2745 16.48 14.3395 16.4925 14.4023L17.5725 19.8405C17.5866 19.9109 17.5802 19.9837 17.554 20.0505C17.5279 20.1173 17.4832 20.1752 17.4252 20.2174C17.3672 20.2595 17.2983 20.2842 17.2267 20.2884C17.1551 20.2926 17.0838 20.2761 17.0213 20.241L12.1838 17.5328C12.1277 17.5012 12.0644 17.4847 12 17.4847C11.9357 17.4847 11.8724 17.5012 11.8163 17.5328L6.97877 20.2403C6.91628 20.2753 6.84508 20.2917 6.77357 20.2875C6.70207 20.2833 6.63325 20.2588 6.57527 20.2167C6.51728 20.1747 6.47255 20.1169 6.44637 20.0502C6.42018 19.9836 6.41364 19.9108 6.42751 19.8405L7.50751 14.4023C7.52016 14.3394 7.51646 14.2743 7.49676 14.2132C7.47707 14.1522 7.44203 14.0972 7.39501 14.0535L3.32402 10.2885C3.27157 10.2399 3.23412 10.1773 3.2161 10.108C3.19808 10.0388 3.20024 9.96588 3.22231 9.89784C3.24439 9.8298 3.28546 9.76949 3.34069 9.72403C3.39592 9.67858 3.463 9.64986 3.53401 9.64128L9.04051 8.98878C9.10431 8.98134 9.16512 8.95763 9.21713 8.91994C9.26913 8.88225 9.31059 8.83184 9.33751 8.77353L11.6595 3.73803Z" fill="#2D201D" stroke="#2D201D" stroke-linecap="round" stroke-linejoin="round"></path>
  </symbol>
  <symbol fill="none" xmlns="http://www.w3.org/2000/svg" viewBox="0 0 24 24" id="star-line">
    <path d="M11.6595 3.73803C11.6895 3.67298 11.7375 3.61789 11.7979 3.57928C11.8582 3.54066 11.9283 3.52014 12 3.52014C12.0716 3.52014 12.1418 3.54066 12.2021 3.57928C12.2624 3.61789 12.3105 3.67298 12.3405 3.73803L14.6632 8.77353C14.6901 8.83174 14.7314 8.88209 14.7833 8.91977C14.8352 8.95746 14.8958 8.98121 14.9595 8.98878L20.4652 9.64128C20.5364 9.64974 20.6037 9.67842 20.659 9.72393C20.7144 9.76944 20.7556 9.82986 20.7777 9.89805C20.7998 9.96623 20.8019 10.0393 20.7837 10.1087C20.7656 10.178 20.7279 10.2407 20.6752 10.2893L16.605 14.0543C16.5581 14.0979 16.5231 14.1527 16.5034 14.2136C16.4837 14.2745 16.48 14.3395 16.4925 14.4023L17.5725 19.8405C17.5865 19.9109 17.5801 19.9837 17.554 20.0505C17.5279 20.1173 17.4832 20.1752 17.4252 20.2174C17.3672 20.2595 17.2983 20.2842 17.2267 20.2884C17.1551 20.2926 17.0838 20.2761 17.0212 20.241L12.1837 17.5328C12.1276 17.5012 12.0643 17.4847 12 17.4847C11.9356 17.4847 11.8723 17.5012 11.8162 17.5328L6.97873 20.2403C6.91625 20.2753 6.84505 20.2917 6.77354 20.2875C6.70204 20.2833 6.63322 20.2588 6.57524 20.2167C6.51725 20.1747 6.47252 20.1169 6.44634 20.0502C6.42015 19.9836 6.41361 19.9108 6.42748 19.8405L7.50748 14.4023C7.52013 14.3394 7.51643 14.2743 7.49673 14.2132C7.47704 14.1522 7.442 14.0972 7.39498 14.0535L3.32398 10.2885C3.27154 10.2399 3.23409 10.1773 3.21607 10.108C3.19805 10.0388 3.20021 9.96588 3.22228 9.89784C3.24436 9.8298 3.28543 9.76949 3.34066 9.72403C3.39589 9.67857 3.46297 9.64986 3.53398 9.64128L9.04048 8.98878C9.10428 8.98134 9.16509 8.95763 9.2171 8.91994C9.2691 8.88225 9.31056 8.83184 9.33748 8.77353L11.6595 3.73803Z" stroke="#2D201D" stroke-linecap="round" stroke-linejoin="round"></path>
  </symbol>
  <symbol fill="none" xmlns="http://www.w3.org/2000/svg" viewBox="0 0 24 24" id="timer">
    <path d="M10 2H14M12 13.5L15 10.5" stroke="#2D201D" stroke-linecap="round" stroke-linejoin="round"></path>
    <path d="M12 21C16.4183 21 20 17.4183 20 13C20 8.58172 16.4183 5 12 5C7.58172 5 4 8.58172 4 13C4 17.4183 7.58172 21 12 21Z" stroke="#2D201D" stroke-linecap="round" stroke-linejoin="round"></path>
  </symbol>
  <symbol fill="none" xmlns="http://www.w3.org/2000/svg" viewBox="0 0 24 24" id="arrow_diagonal">
    <g clip-path="url(#clip0_201_4965)">
      <path d="M5.63606 18.364L18.364 5.63608M18.364 5.63608H6.34317M18.364 5.63608V17.6569" stroke="#2D201D" stroke-linecap="round" stroke-linejoin="round"></path>
    </g>
    <defs>
      <clipPath id="clip0_201_4965">
        <rect width="24" height="24" fill="white"></rect>
      </clipPath>
    </defs>
  </symbol>
  <symbol fill="none" xmlns="http://www.w3.org/2000/svg" viewBox="0 0 24 24" id="arrow_left">
    <path d="M21 12H3M3 12L11.5 20.5M3 12L11.5 3.5" stroke="#2D201D" stroke-linecap="round" stroke-linejoin="round"></path>
  </symbol>
  <symbol fill="none" xmlns="http://www.w3.org/2000/svg" viewBox="0 0 24 24" id="arrow_right">
    <path d="M3 12H21M21 12L12.5 20.5M21 12L12.5 3.5" stroke="#2D201D" stroke-linecap="round" stroke-linejoin="round"></path>
  </symbol>
  <symbol fill="none" xmlns="http://www.w3.org/2000/svg" viewBox="0 0 24 24" id="arrow_left">
    <g clip-path="url(#clip0_468_14122)">
      <path d="M12.29 8.71005L9.69997 11.3001C9.30997 11.6901 9.30997 12.3201 9.69997 12.7101L12.29 15.3001C12.92 15.9301 14 15.4801 14 14.5901V9.41005C14 8.52005 12.92 8.08005 12.29 8.71005Z" fill="#2D201D"></path>
    </g>
    <defs>
      <clipPath id="clip0_468_14122">
        <rect width="24" height="24" fill="white"></rect>
      </clipPath>
    </defs>
  </symbol>
  <symbol fill="none" xmlns="http://www.w3.org/2000/svg" viewBox="0 0 24 24" id="arrow_right">
    <g clip-path="url(#clip0_468_14125)">
      <path d="M11.71 15.29L14.3 12.7C14.69 12.31 14.69 11.68 14.3 11.29L11.71 8.69997C11.08 8.07997 10 8.51997 10 9.40997V14.58C10 15.48 11.08 15.92 11.71 15.29Z" fill="#2D201D"></path>
    </g>
    <defs>
      <clipPath id="clip0_468_14125">
        <rect width="24" height="24" fill="white"></rect>
      </clipPath>
    </defs>
  </symbol>
  <symbol fill="none" xmlns="http://www.w3.org/2000/svg" viewBox="0 0 24 24" id="cart">
    <path d="M4.12968 21L1 10.0438H7.33293L12.0154 3L16.655 10.0438H23L19.8297 21H4.12968ZM12 16.6175C12.2943 16.6175 12.5509 16.5083 12.7698 16.2899C12.9887 16.0715 13.0981 15.8155 13.0981 15.5219C13.0981 15.2283 12.9887 14.9722 12.7698 14.7538C12.5509 14.5355 12.2943 14.4263 12 14.4263C11.7057 14.4263 11.4491 14.5355 11.2302 14.7538C11.0113 14.9722 10.9019 15.2283 10.9019 15.5219C10.9019 15.8155 11.0113 16.0715 11.2302 16.2899C11.4491 16.5083 11.7057 16.6175 12 16.6175ZM8.66607 10.0438H15.3284L11.9934 4.9787L8.66607 10.0438Z" fill="#2D201D"></path>
  </symbol>
  <symbol fill="none" xmlns="http://www.w3.org/2000/svg" viewBox="0 0 24 24" id="cart-outline">
    <path d="M3.20624 9C2.95417 8.99974 2.71221 9.09912 2.5331 9.27649C2.35398 9.45385 2.25222 9.69481 2.24999 9.94688C2.24899 10.0342 2.26165 10.1212 2.28749 10.2047L4.71093 18.75C4.82325 19.1492 5.0633 19.5005 5.39432 19.7503C5.72534 20 6.12908 20.1344 6.54374 20.1328H17.4562C17.8717 20.1332 18.276 19.9985 18.6083 19.7491C18.9406 19.4997 19.1828 19.149 19.2984 18.75L21.7219 10.2047L21.75 9.94688C21.7478 9.69481 21.646 9.45385 21.4669 9.27649C21.2878 9.09912 21.0458 8.99974 20.7937 9H3.20624ZM12.2681 16.5033C11.8785 16.5013 11.4982 16.384 11.1752 16.1662C10.8522 15.9483 10.601 15.6396 10.4532 15.2791C10.3055 14.9186 10.2678 14.5224 10.345 14.1405C10.4222 13.7586 10.6108 13.4082 10.887 13.1334C11.1632 12.8586 11.5146 12.6717 11.8968 12.5964C12.2791 12.5211 12.6751 12.5607 13.0349 12.7103C13.3946 12.8598 13.7021 13.1126 13.9183 13.4367C14.1346 13.7608 14.25 14.1416 14.25 14.5313C14.2475 15.0552 14.0376 15.5569 13.6662 15.9264C13.2948 16.296 12.7921 16.5034 12.2681 16.5033Z" stroke="#2D201D" stroke-linejoin="round"></path>
    <path d="M7.5 9L12 3L16.5 9" stroke="#2D201D" stroke-linejoin="round"></path>
  </symbol>
  <symbol fill="none" xmlns="http://www.w3.org/2000/svg" viewBox="0 0 24 24" id="catalog">
    <path d="M8 3C8.79565 3 9.55871 3.31607 10.1213 3.87868C10.6839 4.44129 11 5.20435 11 6V18C11 18.7956 10.6839 19.5587 10.1213 20.1213C9.55871 20.6839 8.79565 21 8 21H6C5.20435 21 4.44129 20.6839 3.87868 20.1213C3.31607 19.5587 3 18.7956 3 18V6C3 5.20435 3.31607 4.44129 3.87868 3.87868C4.44129 3.31607 5.20435 3 6 3H8ZM18 3C18.7956 3 19.5587 3.31607 20.1213 3.87868C20.6839 4.44129 21 5.20435 21 6V12C21 12.7956 20.6839 13.5587 20.1213 14.1213C19.5587 14.6839 18.7956 15 18 15H16C15.2044 15 14.4413 14.6839 13.8787 14.1213C13.3161 13.5587 13 12.7956 13 12V6C13 5.20435 13.3161 4.44129 13.8787 3.87868C14.4413 3.31607 15.2044 3 16 3H18Z" fill="#2D201D"></path>
  </symbol>
  <symbol fill="none" xmlns="http://www.w3.org/2000/svg" viewBox="0 0 24 24" id="catalog_line">
    <path d="M17 10C18.6569 10 20 8.65685 20 7C20 5.34315 18.6569 4 17 4C15.3431 4 14 5.34315 14 7C14 8.65685 15.3431 10 17 10Z" stroke="#2D201D" stroke-linecap="round" stroke-linejoin="round"></path>
    <path d="M7 20C8.65685 20 10 18.6569 10 17C10 15.3431 8.65685 14 7 14C5.34315 14 4 15.3431 4 17C4 18.6569 5.34315 20 7 20Z" stroke="#2D201D" stroke-linecap="round" stroke-linejoin="round"></path>
    <path d="M14 14H20V19C20 19.2652 19.8946 19.5196 19.7071 19.7071C19.5196 19.8946 19.2652 20 19 20H15C14.7348 20 14.4804 19.8946 14.2929 19.7071C14.1054 19.5196 14 19.2652 14 19V14ZM4 4H10V9C10 9.26522 9.89464 9.51957 9.70711 9.70711C9.51957 9.89464 9.26522 10 9 10H5C4.73478 10 4.48043 9.89464 4.29289 9.70711C4.10536 9.51957 4 9.26522 4 9V4Z" stroke="#2D201D" stroke-linecap="round" stroke-linejoin="round"></path>
  </symbol>
  <symbol fill="none" xmlns="http://www.w3.org/2000/svg" viewBox="0 0 24 24" id="check">
    <path d="M20 6L9 17L4 12" stroke="#2D201D" stroke-linecap="round" stroke-linejoin="round"></path>
  </symbol>
</svg>